HIERARCHY
ROOT Hips
{
	OFFSET -0.031289 103.266464 0.443827
	CHANNELS 6 Xposition Yposition Zposition Xrotation Yrotation Zrotation 
	JOINT Spine
	{
		OFFSET -0.002448 12.777534 0.315252
		CHANNELS 3 Xrotation Yrotation Zrotation
		JOINT Spine1
		{
			OFFSET -0.002040 5.816851 0.032640
			CHANNELS 3 Xrotation Yrotation Zrotation
			JOINT Spine1_split
			{
				OFFSET -0.002040 5.816851 0.032640
				CHANNELS 3 Xrotation Yrotation Zrotation
				JOINT Spine2
				{
					OFFSET -0.002040 5.816851 0.032640
					CHANNELS 3 Xrotation Yrotation Zrotation
					JOINT Neck
					{
						OFFSET -0.003672 21.199554 -0.826883
						CHANNELS 3 Xrotation Yrotation Zrotation
						JOINT Head
						{
							OFFSET -0.000000 20.442154 4.834770
							CHANNELS 3 Xrotation Yrotation Zrotation
							JOINT HeadTop_End
							{
								OFFSET 0.000000 34.668427 4.968426
								CHANNELS 3 Xrotation Yrotation Zrotation
								End Site
								{
									OFFSET 0.000000 0.000000 0.000000
								}
							}
						}
					}
					JOINT LeftShoulder
					{
						OFFSET 3.288174 8.794213 -1.372251
						CHANNELS 3 Xrotation Yrotation Zrotation
						JOINT LeftShoulder_split
						{
							OFFSET 3.288174 8.794213 -1.372251
							CHANNELS 3 Xrotation Yrotation Zrotation
							JOINT LeftArm
							{
								OFFSET 11.953302 -2.279037 -0.146175
								CHANNELS 3 Xrotation Yrotation Zrotation
								JOINT LeftForeArm
								{
									OFFSET 18.448874 0.000061 -0.000024
									CHANNELS 3 Xrotation Yrotation Zrotation
									JOINT LeftHand
									{
										OFFSET 29.527794 0.000092 -0.000021
										CHANNELS 3 Xrotation Yrotation Zrotation
										JOINT LeftHandThumb1
										{
											OFFSET 10.739838 -2.369766 9.225297
											CHANNELS 3 Xrotation Yrotation Zrotation
											JOINT LeftHandThumb2
											{
												OFFSET 4.926178 -2.844101 2.844107
												CHANNELS 3 Xrotation Yrotation Zrotation
												JOINT LeftHandThumb3
												{
													OFFSET 4.614899 -2.664444 2.664389
													CHANNELS 3 Xrotation Yrotation Zrotation
													JOINT LeftHandThumb4
													{
														OFFSET 4.432472 -2.559052 2.559026
														CHANNELS 3 Xrotation Yrotation Zrotation
														End Site
														{
															OFFSET 0.000000 0.000000 0.000000
														}
													}
												}
											}
										}
										JOINT LeftHandIndex1
										{
											OFFSET 26.467659 0.187592 6.405249
											CHANNELS 3 Xrotation Yrotation Zrotation
											JOINT LeftHandIndex2
											{
												OFFSET 8.792877 0.000046 -0.000014
												CHANNELS 3 Xrotation Yrotation Zrotation
												JOINT LeftHandIndex3
												{
													OFFSET 10.075157 0.000031 -0.000014
													CHANNELS 3 Xrotation Yrotation Zrotation
													End Site
													{
														OFFSET 0.000000 0.000000 0.000000
													}
												}
											}
										}
										JOINT LeftHandMiddle1
										{
											OFFSET 25.764420 0.000076 -0.000063
											CHANNELS 3 Xrotation Yrotation Zrotation
											JOINT LeftHandMiddle2
											{
												OFFSET 9.368942 -0.468658 -0.500905
												CHANNELS 3 Xrotation Yrotation Zrotation
												JOINT LeftHandMiddle3
												{
													OFFSET 10.758461 -0.538101 0.000023
													CHANNELS 3 Xrotation Yrotation Zrotation
													End Site
													{
														OFFSET 0.000000 0.000000 0.000000
													}
												}
											}
										}
										JOINT LeftHandRing1
										{
											OFFSET 24.660912 0.144745 -6.225863
											CHANNELS 3 Xrotation Yrotation Zrotation
											JOINT LeftHandRing2
											{
												OFFSET 9.393806 0.000046 -0.000017
												CHANNELS 3 Xrotation Yrotation Zrotation
												JOINT LeftHandRing3
												{
													OFFSET 9.928528 -0.000015 -0.000007
													CHANNELS 3 Xrotation Yrotation Zrotation
													End Site
													{
														OFFSET 0.000000 0.000000 0.000000
													}
												}
											}
										}
										JOINT LeftHandPinky1
										{
											OFFSET 23.655312 0.125748 -12.815530
											CHANNELS 3 Xrotation Yrotation Zrotation
											JOINT LeftHandPinky2
											{
												OFFSET 8.425102 0.000031 -0.000015
												CHANNELS 3 Xrotation Yrotation Zrotation
												JOINT LeftHandPinky3
												{
													OFFSET 8.146988 0.000015 -0.000021
													CHANNELS 3 Xrotation Yrotation Zrotation
													End Site
													{
														OFFSET 0.000000 0.000000 0.000000
													}
												}
											}
										}
									}
								}
							}
						}
					}
					JOINT RightShoulder
					{
						OFFSET -3.249397 8.794213 -1.372251
						CHANNELS 3 Xrotation Yrotation Zrotation
						JOINT RightShoulder_split
						{
							OFFSET -3.249397 8.794213 -1.372251
							CHANNELS 3 Xrotation Yrotation Zrotation
							JOINT RightArm
							{
								OFFSET -11.953302 -2.279037 -0.146175
								CHANNELS 3 Xrotation Yrotation Zrotation
								JOINT RightForeArm
								{
									OFFSET -18.448874 0.000061 -0.000024
									CHANNELS 3 Xrotation Yrotation Zrotation
									JOINT RightHand
									{
										OFFSET -29.527794 0.000092 -0.000021
										CHANNELS 3 Xrotation Yrotation Zrotation
										JOINT RightHandThumb1
										{
											OFFSET -10.739838 -2.369766 9.225297
											CHANNELS 3 Xrotation Yrotation Zrotation
											JOINT RightHandThumb2
											{
												OFFSET -4.926178 -2.844101 2.844107
												CHANNELS 3 Xrotation Yrotation Zrotation
												JOINT RightHandThumb3
												{
													OFFSET -4.614899 -2.664444 2.664389
													CHANNELS 3 Xrotation Yrotation Zrotation
													JOINT RightHandThumb4
													{
														OFFSET -4.432472 -2.559052 2.559026
														CHANNELS 3 Xrotation Yrotation Zrotation
														End Site
														{
															OFFSET 0.000000 0.000000 0.000000
														}
													}
												}
											}
										}
										JOINT RightHandIndex1
										{
											OFFSET -26.467659 0.187592 6.405249
											CHANNELS 3 Xrotation Yrotation Zrotation
											JOINT RightHandIndex2
											{
												OFFSET -8.792877 0.000046 -0.000014
												CHANNELS 3 Xrotation Yrotation Zrotation
												JOINT RightHandIndex3
												{
													OFFSET -10.075157 0.000031 -0.000014
													CHANNELS 3 Xrotation Yrotation Zrotation
													End Site
													{
														OFFSET 0.000000 0.000000 0.000000
													}
												}
											}
										}
										JOINT RightHandMiddle1
										{
											OFFSET -25.764420 0.000076 -0.000063
											CHANNELS 3 Xrotation Yrotation Zrotation
											JOINT RightHandMiddle2
											{
												OFFSET -9.368942 -0.468658 -0.500905
												CHANNELS 3 Xrotation Yrotation Zrotation
												JOINT RightHandMiddle3
												{
													OFFSET -10.758461 -0.538101 0.000023
													CHANNELS 3 Xrotation Yrotation Zrotation
													End Site
													{
														OFFSET 0.000000 0.000000 0.000000
													}
												}
											}
										}
										JOINT RightHandRing1
										{
											OFFSET -24.660912 0.144745 -6.225863
											CHANNELS 3 Xrotation Yrotation Zrotation
											JOINT RightHandRing2
											{
												OFFSET -9.393806 0.000046 -0.000017
												CHANNELS 3 Xrotation Yrotation Zrotation
												JOINT RightHandRing3
												{
													OFFSET -9.928528 -0.000015 -0.000007
													CHANNELS 3 Xrotation Yrotation Zrotation
													End Site
													{
														OFFSET 0.000000 0.000000 0.000000
													}
												}
											}
										}
										JOINT RightHandPinky1
										{
											OFFSET -23.655312 0.125748 -12.815530
											CHANNELS 3 Xrotation Yrotation Zrotation
											JOINT RightHandPinky2
											{
												OFFSET -8.425102 0.000031 -0.000015
												CHANNELS 3 Xrotation Yrotation Zrotation
												JOINT RightHandPinky3
												{
													OFFSET -8.146980 0.000015 -0.000021
													CHANNELS 3 Xrotation Yrotation Zrotation
													End Site
													{
														OFFSET 0.000000 0.000000 0.000000
													}
												}
											}
										}
									}
								}
							}
						}
					}
				}
			}
		}
	}
	JOINT LeftUpLeg
	{
		OFFSET 11.394079 -6.187805 -0.413817
		CHANNELS 3 Xrotation Yrotation Zrotation
		JOINT LeftLeg
		{
			OFFSET 0.435522 -32.302582 3.732836
			CHANNELS 3 Xrotation Yrotation Zrotation
			JOINT LeftFoot
			{
				OFFSET -0.422448 -48.265030 -6.423308
				CHANNELS 3 Xrotation Yrotation Zrotation
				JOINT LeftToeBase
				{
					OFFSET 4.230914 -16.068172 23.438400
					CHANNELS 3 Xrotation Yrotation Zrotation
					JOINT LeftToe_End
					{
						OFFSET 4.510741 0.695408 19.974636
						CHANNELS 3 Xrotation Yrotation Zrotation
						End Site
						{
							OFFSET 0.000000 0.000000 0.000000
						}
					}
				}
			}
		}
	}
	JOINT RightUpLeg
	{
		OFFSET -11.333660 -6.187805 -0.413817
		CHANNELS 3 Xrotation Yrotation Zrotation
		JOINT RightLeg
		{
			OFFSET -0.425090 -32.302704 3.733010
			CHANNELS 3 Xrotation Yrotation Zrotation
			JOINT RightFoot
			{
				OFFSET 0.438313 -48.264862 -6.423481
				CHANNELS 3 Xrotation Yrotation Zrotation
				JOINT RightToeBase
				{
					OFFSET -4.230914 -16.068172 23.438402
					CHANNELS 3 Xrotation Yrotation Zrotation
					JOINT RightToe_End
					{
						OFFSET -4.510741 0.695407 19.974638
						CHANNELS 3 Xrotation Yrotation Zrotation
						End Site
						{
							OFFSET 0.000000 0.000000 0.000000
						}
					}
				}
			}
		}
	}
}
MOTION
Frames: 5
Frame Time: 0.016667
1.800272 95.689072 -8.072098 -8.571294 0.597746 -6.090002 22.182433 0.269399 -10.750632 4.323414 0.146922 0.771308 0.000000 0.000000 0.000000 4.317595 0.254436 0.769912 6.233856 2.141240 -5.361026 32.391373 5.275867 -5.339068 0.000001 -0.000001 0.000000 0.683437 -4.757081 -8.732351 0.000000 0.000000 0.000000 -17.873073 -16.423383 -56.238500 0.000072 -12.739546 0.000112 -4.790823 -6.930326 8.698605 2.658865 15.617000 9.924075 3.432329 10.370383 1.774783 -1.147364 8.312374 6.319173 -0.000000 -0.000001 -0.000001 0.315691 1.572050 -16.940290 0.429987 2.399638 -20.314765 -0.000000 0.000001 -0.000000 -0.483351 -0.480491 -17.463194 1.365929 6.599313 -31.917785 -0.000000 -0.000001 -0.000000 0.885638 3.428455 -24.665476 2.124776 4.978986 -46.199266 -0.000001 0.000000 -0.000002 3.210071 7.780385 -27.847499 3.230384 1.749353 -57.987562 0.000002 0.000003 0.000001 -0.194356 2.291444 -1.723660 0.000000 0.000000 0.000000 -14.930163 10.570135 80.264613 0.000065 12.026224 -0.000120 20.021984 11.891547 -9.537504 1.825876 -18.060371 -10.895455 1.784064 -7.966698 -2.688706 -2.800507 -6.316052 -6.893159 0.000001 0.000001 -0.000002 3.059824 -8.746818 22.429218 0.213547 -1.713489 14.206793 0.000001 0.000000 -0.000000 2.742744 -6.675113 24.885362 0.862980 -5.767816 23.504329 0.000000 -0.000000 -0.000000 5.584702 -10.075627 34.893186 1.258064 -3.994502 34.951656 0.000002 -0.000003 -0.000000 6.866556 -10.450407 40.528379 1.961758 -4.845401 44.063091 0.000002 -0.000000 -0.000003 -23.797219 9.877157 11.613084 41.991634 8.541234 4.276574 -11.099318 6.660141 -4.598560 -4.115592 -0.000020 -0.000002 -0.000000 0.000000 0.000000 -20.682450 -6.683907 -2.970803 28.772517 -8.599156 -0.718070 3.091434 -11.510785 6.006607 -4.214276 0.000032 0.000004 0.000000 0.000002 0.000000 
1.873897 95.669968 -8.058163 -8.956103 0.911431 -6.099738 22.296249 0.507913 -10.835283 4.244832 0.179286 0.853542 0.000000 0.000000 0.000000 4.237881 0.289960 0.852520 6.296052 2.046059 -5.379577 32.415115 4.881096 -5.563026 0.000001 -0.000000 0.000000 0.673841 -4.345955 -8.751225 0.000000 0.000000 0.000000 -19.404393 -17.877561 -58.036397 0.000048 -8.352616 0.000116 -4.952995 -5.773840 11.641446 2.685491 15.702772 9.912029 3.432328 10.370384 1.774781 -1.229337 8.156888 6.339969 0.000001 0.000000 0.000000 0.407337 1.837889 -16.301828 0.430462 2.400929 -20.326267 -0.000000 0.000000 -0.000001 -0.415875 -0.442025 -16.777960 1.391952 6.636272 -32.298674 0.000000 0.000000 0.000000 0.805650 3.223741 -23.916724 2.198589 5.048471 -47.043898 0.000001 0.000000 0.000002 2.956428 7.413149 -27.024446 3.355188 1.825511 -59.202359 0.000001 0.000000 -0.000002 -0.200336 2.255767 -1.862622 0.000000 0.000000 0.000000 -15.445921 11.300417 81.081654 0.000067 11.288603 -0.000133 22.012880 12.588863 -7.266164 1.822963 -18.035490 -10.885792 1.784287 -7.968764 -2.689149 -2.743661 -6.428373 -6.876991 0.000003 0.000000 -0.000000 3.159328 -8.915408 22.701717 0.213554 -1.713518 14.206932 0.000001 -0.000000 0.000000 2.805044 -6.757402 25.154764 0.863130 -5.768149 23.507423 0.000006 -0.000000 0.000002 5.605939 -10.046360 35.162514 1.258219 -3.994721 34.953800 -0.000001 -0.000001 0.000001 6.825861 -10.348667 40.791013 1.961748 -4.845396 44.063084 -0.000002 -0.000000 -0.000001 -23.470048 9.892680 11.603132 42.070468 8.586586 4.310239 -11.177583 6.359705 -4.557798 -4.100136 -0.000002 -0.000002 -0.000000 -0.000002 -0.000000 -20.230532 -6.869747 -3.146641 28.841102 -8.595271 -0.629471 3.012722 -11.537440 6.059276 -4.238730 0.000013 0.000002 -0.000000 -0.000000 -0.000000 
1.937431 95.694542 -8.010695 -9.271317 1.279703 -6.081310 22.324765 0.673815 -10.900628 4.133709 0.201984 0.930894 0.000000 0.000000 0.000000 4.125797 0.314541 0.929985 6.334330 1.940318 -5.391291 32.282643 4.521312 -5.961185 -0.000000 0.000000 0.000000 0.662096 -3.939411 -8.761970 0.000000 0.000000 0.000000 -20.464235 -19.100566 -59.645891 0.000029 -4.838181 0.000119 -5.469780 -4.058747 14.169867 2.709446 15.756551 9.883858 3.432327 10.370383 1.774779 -1.312393 7.999135 6.361087 -0.000000 0.000000 0.000004 0.500960 2.165085 -15.886019 0.430975 2.402315 -20.338451 -0.000001 -0.000001 -0.000002 -0.336578 -0.310769 -16.261128 1.420487 6.676207 -32.712348 -0.000000 -0.000000 -0.000000 0.774572 3.140487 -23.273950 2.279922 5.122696 -47.961366 -0.000002 0.000001 0.000001 2.783006 7.186966 -26.263353 3.492572 1.905227 -60.522129 0.000000 0.000000 0.000003 -0.201594 2.145567 -1.996578 0.000000 0.000000 0.000000 -15.764603 11.888741 81.832251 0.000063 10.854788 -0.000090 23.849877 13.291737 -4.893756 1.816492 -17.969893 -10.860644 1.783795 -7.968838 -2.688996 -2.692268 -6.529997 -6.862084 0.000001 0.000001 0.000000 3.261306 -9.054165 23.074811 0.213555 -1.713533 14.207120 -0.000002 -0.000000 0.000001 2.870430 -6.833425 25.479964 0.863290 -5.768461 23.510310 0.000004 0.000000 -0.000001 5.641745 -10.036443 35.433655 1.258367 -3.994896 34.955692 0.000001 0.000000 -0.000000 6.810797 -10.286909 41.013104 1.961750 -4.845398 44.063121 0.000002 0.000000 0.000001 -23.112252 9.933911 11.582112 42.010421 8.628721 4.325143 -11.220005 5.985959 -4.510037 -4.092264 -0.000003 0.000002 0.000000 0.000000 -0.000000 -19.729157 -7.053710 -3.333357 28.781584 -8.603202 -0.533705 2.950523 -11.612168 6.116051 -4.260643 -0.000005 -0.000000 -0.000000 -0.000002 -0.000000 
1.995748 95.765366 -7.927966 -9.528983 1.674733 -6.041544 22.269183 0.764245 -10.942568 3.999442 0.214994 0.991228 0.000000 0.000000 0.000000 3.990886 0.327721 0.990226 6.336060 1.838045 -5.398903 31.969353 4.256894 -6.515813 0.000001 -0.000001 0.000003 0.649429 -3.574096 -8.777023 0.000000 0.000000 0.000000 -20.869368 -19.999093 -60.934720 0.000012 -2.505028 0.000108 -6.188644 -1.976458 15.750418 2.731113 15.775787 9.840239 3.432328 10.370384 1.774777 -1.386559 7.857947 6.380030 -0.000001 0.000000 0.000000 0.591912 2.527533 -15.759342 0.431401 2.403479 -20.348674 0.000000 -0.000000 -0.000001 -0.254658 -0.099076 -15.977573 1.449584 6.716280 -33.129634 0.000001 -0.000000 0.000001 0.788409 3.181210 -22.799441 2.363342 5.196397 -48.888991 -0.000000 -0.000000 -0.000000 2.693624 7.114502 -25.624665 3.633356 1.982606 -61.857274 0.000000 0.000002 0.000002 -0.198738 1.964395 -2.107593 0.000000 0.000000 0.000000 -15.870522 12.397969 82.487327 0.000058 10.729589 -0.000119 25.266738 13.846192 -2.707591 1.804901 -17.876302 -10.828728 1.782886 -7.967514 -2.688455 -2.655103 -6.603595 -6.851027 -0.000001 0.000002 0.000003 3.361777 -9.158464 23.516357 0.213561 -1.713560 14.207241 0.000001 0.000000 -0.000001 2.936585 -6.900996 25.833369 0.863427 -5.768721 23.512761 -0.000002 0.000000 -0.000002 5.690451 -10.047315 35.684101 1.258461 -3.995055 34.957185 -0.000002 -0.000000 0.000003 6.822215 -10.268185 41.176417 1.961750 -4.845380 44.063094 0.000000 -0.000000 0.000001 -22.701978 10.008425 11.551925 41.804630 8.667904 4.323938 -11.229436 5.561058 -4.457343 -4.089937 -0.000005 0.000001 -0.000000 -0.000002 -0.000000 -19.159470 -7.219585 -3.506833 28.574119 -8.629145 -0.447087 2.916567 -11.727816 6.182965 -4.276235 0.000007 -0.000001 -0.000000 -0.000001 -0.000000 
2.052989 95.879395 -7.811468 -9.743443 2.066376 -5.992085 22.134034 0.783948 -10.954676 3.849618 0.219160 1.025539 0.000000 0.000000 0.000000 3.840778 0.330078 1.024323 6.295816 1.753649 -5.408835 31.481131 4.130782 -7.171959 0.000000 -0.000002 0.000000 0.637023 -3.276425 -8.800802 0.000000 0.000000 0.000000 -20.543189 -20.569349 -61.836742 0.000012 -1.374451 0.000119 -6.772622 0.254369 15.961249 2.750252 15.762533 9.785348 3.432329 10.370385 1.774783 -1.442464 7.751116 6.394359 0.000001 -0.000000 0.000001 0.678090 2.894851 -15.948355 0.431611 2.404037 -20.353702 -0.000000 -0.000000 -0.000000 -0.176420 0.171727 -15.961437 1.476893 6.753359 -33.517780 -0.000000 0.000000 -0.000000 0.841397 3.335209 -22.536125 2.442446 5.264100 -49.756757 -0.000000 0.000000 0.000004 2.686193 7.192578 -25.158095 3.766788 2.052079 -63.107697 -0.000000 -0.000000 -0.000001 -0.193727 1.742873 -2.187235 0.000000 0.000000 0.000000 -15.748994 12.882612 83.015431 0.000064 10.880169 -0.000108 26.145300 14.131132 -0.951397 1.788807 -17.770935 -10.797624 1.781850 -7.965399 -2.687729 -2.638522 -6.636759 -6.845619 -0.000003 0.000000 -0.000001 3.457045 -9.226148 23.995230 0.213564 -1.713568 14.207308 -0.000002 0.000000 -0.000001 3.000770 -6.957489 26.190174 0.863524 -5.768903 23.514583 0.000000 0.000000 -0.000002 5.748185 -10.076767 35.896367 1.258532 -3.995168 34.958179 0.000001 -0.000000 -0.000000 6.856688 -10.289661 41.269389 1.961754 -4.845387 44.063077 0.000001 0.000000 0.000000 -22.229153 10.117451 11.518027 41.464914 8.706230 4.311749 -11.212644 5.111955 -4.404295 -4.090438 -0.000007 -0.000003 -0.000000 0.000000 0.000000 -18.513337 -7.348813 -3.638243 28.215185 -8.677963 -0.386968 2.919481 -11.878146 6.265989 -4.282757 -0.000014 -0.000002 -0.000000 -0.000000 -0.000000 
